<svg viewBox="0 0 36.691 36.691">
    <path d="M8.763,2.479L6.526,34.162l18.38,2.529L27.297,0L8.763,2.479z M16.762,2.735c0.241,0,0.438,0.239,0.438,0.535 c0,0.295-0.197,0.536-0.438,0.536c-0.243,0-0.439-0.241-0.439-0.536C16.323,2.975,16.519,2.735,16.762,2.735z M14.525,4.478 l4.56-0.227v0.514l-4.56,0.229V4.478z M15.454,34.504c-0.624,0-1.129-0.574-1.129-1.281c0-0.705,0.505-1.279,1.129-1.279 c0.623,0,1.129,0.574,1.129,1.279C16.583,33.93,16.077,34.504,15.454,34.504z M21.312,31.646l-11.372-1.33L11.429,6.97 L23.25,6.304L21.312,31.646z" />
    <polygon points="28.412,0.279 25.934,36.691 27.803,35.734 30.166,1.11" />
</svg>
