<svg viewBox="0 0 44.621 44.621">
    <polygon points="39.57,0.276 37.282,32.557 40.317,32.053 42.513,1.757" />
    <polygon points="20.803,41.764 28.021,38.66 28.021,33.174 18.89,31.912 18.999,35.268 9.869,38.805" />
    <polygon points="29.38,39.338 21.28,42.932 9.523,39.748 9.522,41.211 21.406,44.621 31.051,40.32 31.051,33.658 29.38,33.328" />
    <path d="M3.264,3.581L2.108,27.977l33.635,4.619L38.143,0L3.264,3.581z M13.771,27.914c-0.512,0-0.925-0.436-0.925-0.971 s0.413-0.971,0.925-0.971c0.512,0,0.925,0.436,0.925,0.971C14.697,27.48,14.284,27.914,13.771,27.914z M17.61,28.52c-0.538,0-0.972-0.457-0.972-1.02s0.434-1.02,0.972-1.02c0.536,0,0.97,0.457,0.97,1.02S18.146,28.52,17.61,28.52z M21.653,29.213c-0.598,0-1.081-0.508-1.081-1.135s0.483-1.135,1.081-1.135c0.598,0,1.082,0.508,1.082,1.135C22.735,28.707,22.25,29.213,21.653,29.213z M32.784,26.803L5.976,23.727L6.7,6.172L34.473,3.32L32.784,26.803z" />
</svg>
