<svg viewBox="0 0 154.884 154.884">
    <path d="M30.11,0v154.884h94.664V0H30.11z M65.184,8.28h24.531v2.204H65.184V8.28z M62.241,135.268H43.79v-9.72h18.451V135.268z M62.241,119.988H43.79v-9.729h18.451V119.988z M62.241,104.708H43.79V95.01h18.451V104.708z M62.241,89.053H43.79v-9.714h18.451V89.053z M89.71,148.628H65.178v-2.199H89.71V148.628z M86.668,94.999v9.699H68.215v-9.699H86.668z M68.22,89.053v-9.714h18.454v9.714H68.22z M86.668,110.259v9.729H68.215v-9.729H86.668z M86.668,125.538v9.729H68.215v-9.729H86.668z M111.083,135.268H92.63v-9.72h18.453V135.268z M111.083,119.988H92.63v-9.729h18.453V119.988z M111.083,104.708H92.63V95.01h18.453V104.708z M111.083,89.053H92.63v-9.714h18.453V89.053z M111.129,72.93L43.79,72.709V16.603l67.304-0.03L111.129,72.93z" />
</svg>
